# xmcd CD database file
#
# Track frame offsets:
#	150
#	21493
#	39458
#	52635
#	68012
#	81013
#	98492
#	114849
#	136876
#	152876
#	169307
#	185403
#	201362
#	215401
#	240617
#	260878
#	282587
#	301103
#	320939
#	336395
#
# Disc length: 4723 seconds
#
# Revision: 0
# Processed by: cddbd v1.5.2PL0 Copyright (c) Steve Scherf et al.
# Submitted via: Feurio! 1.68 - http://www.feurio.com
#
DISCID=23127114
DTITLE=twain, shania  - greatest hits
DYEAR=1900
DGENRE=country/pop-rock
TTITLE0=Forever And For Always
TTITLE1=I'm gonna get you good
TTITLE2=Up!
TTITLE3=Ka-Ching!
TTITLE4=Come on Over
TTITLE5=man! i feel like a woman
TTITLE6=That Don't Impress Me Much
TTITLE7=From This Moment On
TTITLE8=honey, i´m home
TTITLE9=You're Still The One
TTITLE10=ShaniaTwain - Dont be stupid
TTITLE11=Love Gets Me Every Time
TTITLE12=No One Needs To Know
TTITLE13=You Win My Love
TTITLE14=If You're Not In It for Love
TTITLE15=The Woman In Me
TTITLE16=Any Man Of Mine
TTITLE17=Whose Bed Have Your Boots Been
TTITLE18=Party For Two (duet with Billy Currington)
TTITLE19=Don't
EXTD=
EXTT0=
EXTT1=
EXTT2=
EXTT3=
EXTT4=
EXTT5=
EXTT6=
EXTT7=
EXTT8=
EXTT9=
EXTT10=
EXTT11=
EXTT12=
EXTT13=
EXTT14=
EXTT15=
EXTT16=
EXTT17=
EXTT18=
EXTT19=
PLAYORDER=
